<?xml version="1.0" standalone="no"?>
<!DOCTYPE svg PUBLIC "-//W3C//DTD SVG 20010904//EN"
 "http://www.w3.org/TR/2001/REC-SVG-20010904/DTD/svg10.dtd">
<svg version="1.0" xmlns="http://www.w3.org/2000/svg"
 width="260.000000pt" height="260.000000pt" viewBox="0 0 260.000000 260.000000"
 preserveAspectRatio="xMidYMid meet">
<metadata>
Created by potrace 1.14, written by Peter Selinger 2001-2017
</metadata>
<g transform="translate(0.000000,260.000000) scale(0.100000,-0.100000)"
fill="#000000" stroke="none">
<path d="M842 2570 c-23 -11 -93 -29 -155 -40 -84 -16 -122 -28 -152 -49 -22
-16 -54 -36 -72 -45 -44 -22 -201 -173 -220 -211 -8 -16 -26 -42 -39 -56 -14
-14 -35 -59 -49 -100 -13 -41 -34 -101 -45 -134 -20 -53 -22 -75 -18 -195 4
-117 8 -142 30 -190 14 -30 28 -71 32 -92 8 -46 101 -186 169 -256 52 -54 220
-172 244 -172 8 0 53 -16 102 -35 145 -56 320 -58 437 -4 27 12 73 28 102 35
46 11 54 10 72 -4 18 -16 20 -35 25 -372 l6 -355 41 -63 c32 -50 53 -69 102
-96 l61 -34 390 -5 c241 -4 408 -2 435 4 54 12 154 73 168 102 34 72 36 94 40
470 5 565 -2 593 -177 652 -71 24 -81 25 -364 25 -171 0 -307 4 -329 11 -48
13 -55 37 -34 115 27 102 56 252 56 290 0 20 -9 75 -19 123 -11 47 -24 111
-31 142 -6 35 -24 76 -45 105 -19 27 -35 55 -35 62 0 12 -23 39 -115 133 -67
69 -95 92 -141 115 -27 13 -63 33 -80 44 -18 12 -80 30 -140 41 -59 11 -131
29 -158 40 -28 10 -51 19 -51 18 0 0 -19 -9 -43 -19z"/>
</g>
</svg>
